HIERARCHY
ROOT Hips
{
  OFFSET -32.5998 29.0326 120.673
  CHANNELS 6 Xposition Yposition Zposition Zrotation Xrotation Yrotation
  JOINT LeftUpLeg
  {
    OFFSET 8.64259 1.95398 -2.38835
    CHANNELS 3 Zrotation Xrotation Yrotation
    JOINT LeftLeg
    {
      OFFSET 43.7702 0 0
      CHANNELS 3 Zrotation Xrotation Yrotation
      JOINT LeftFoot
      {
        OFFSET 40.6238 0 0
        CHANNELS 3 Zrotation Xrotation Yrotation
        JOINT LeftToeBase
        {
          OFFSET 12.7242 0 0
          CHANNELS 3 Zrotation Xrotation Yrotation
          End Site
          {
            OFFSET 0 0 0
          }
        }
      }
    }
  }
  JOINT RightUpLeg
  {
    OFFSET -8.2249 1.95398 -2.59336
    CHANNELS 3 Zrotation Xrotation Yrotation
    JOINT RightLeg
    {
      OFFSET 43.5653 0 0
      CHANNELS 3 Zrotation Xrotation Yrotation
      JOINT RightFoot
      {
        OFFSET 40.6238 0 0
        CHANNELS 3 Zrotation Xrotation Yrotation
        JOINT RightToeBase
        {
          OFFSET 12.7242 0 0
          CHANNELS 3 Zrotation Xrotation Yrotation
          End Site
          {
            OFFSET 0 0 0
          }
        }
      }
    }
  }
  JOINT Spine
  {
    OFFSET 0.165834 0.87714 6.61349
    CHANNELS 3 Zrotation Xrotation Yrotation
    JOINT Spine1
    {
      OFFSET 7.38963 1.71661e-005 0
      CHANNELS 3 Zrotation Xrotation Yrotation
      JOINT Spine2
      {
        OFFSET 11.9445 1.14441e-005 0
        CHANNELS 3 Zrotation Xrotation Yrotation
        JOINT Spine3
        {
          OFFSET 14.7254 4.19617e-005 0
          CHANNELS 3 Zrotation Xrotation Yrotation
          JOINT Spine4
          {
            OFFSET 10.9679 0 0
            CHANNELS 3 Zrotation Xrotation Yrotation
            JOINT RightShoulder
            {
              OFFSET 2.46616 -1.6653 3.69651
              CHANNELS 3 Zrotation Xrotation Yrotation
              JOINT RightArm
              {
                OFFSET 13.0012 0 0
                CHANNELS 3 Zrotation Xrotation Yrotation
                JOINT RightForeArm
                {
                  OFFSET 28.7848 1.62311e-005 0
                  CHANNELS 3 Zrotation Xrotation Yrotation
                  JOINT RightHand
                  {
                    OFFSET 26.5688 1.62095e-005 0
                    CHANNELS 3 Zrotation Xrotation Yrotation
                    End Site
                    {
                      OFFSET 0 0 0
                    }
                  }
                }
              }
            }
            JOINT LeftShoulder
            {
              OFFSET 2.38034 -1.29275 -3.7523
              CHANNELS 3 Zrotation Xrotation Yrotation
              JOINT LeftArm
              {
                OFFSET 16.3182 6.07031e-005 0
                CHANNELS 3 Zrotation Xrotation Yrotation
                JOINT LeftForeArm
                {
                  OFFSET 27.0901 0 0
                  CHANNELS 3 Zrotation Xrotation Yrotation
                  JOINT LeftHand
                  {
                    OFFSET 24.5451 1.51738e-005 0
                    CHANNELS 3 Zrotation Xrotation Yrotation
                    End Site
                    {
                      OFFSET 0 0 0
                    }
                  }
                }
              }
            }
            JOINT Neck
            {
              OFFSET 5.0226 -0.0266342 0
              CHANNELS 3 Zrotation Xrotation Yrotation
              JOINT Head
              {
                OFFSET 6.69364 2.86102e-005 0
                CHANNELS 3 Zrotation Xrotation Yrotation
                End Site
                {
                  OFFSET 0 0 0
                }
              }
            }
          }
        }
      }
    }
  }
}
MOTION
Frames:	7
Frame Time:	0.0416667
54.7738 101.949 -348.597 176.476 -84.6174 173.971 178.637 -10.3171 81.2352 -3.72535 5.20072 6.73611 69.7195 5.7245 0.150085 16.4093 -8.7545 6.12181 162.543 -5.58206 77.9239 -7.70686 -18.1258 4.74132 67.9218 -5.04335 0.619169 28.0602 -0.0537004 1.49982 0.170162 7.52162 -90.1071 11.831 0.288082 -0.244142 0.160014 0.277056 -0.256603 -22.3753 0.34814 -0.146288 -2.36267 0.34814 -0.14628 91.9148 -28.25 -103.533 43.283 -20.5512 -9.55854 -12.1498 -24.4994 -18.2991 -13.0594 0.169081 -6.89347 -87.7444 -48.7935 81.8916 -29.1093 24.3352 -13.2917 18.0376 33.2516 -17.5283 -26.0202 3.21397 -20.0597 6.16083 -3.84879 -4.37615 -8.03381 -3.23288 7.15778 
54.7584 101.944 -348.653 -177.913 -84.9384 179.871 178.858 -9.8384 81.5551 -4.02486 4.6507 6.59328 69.9919 5.82297 -0.0426018 18.3721 -9.06929 8.51409 162.929 -5.32971 78.3906 -7.57843 -18.3905 4.62046 67.7607 -5.03851 0.280776 28.558 -0.794909 3.63502 0.232888 7.50426 -90.114 11.8661 0.409494 -0.270959 0.195185 0.397179 -0.288726 -22.3404 0.471998 -0.135353 -2.32779 0.471996 -0.135368 92.4747 -28.379 -102.339 42.8293 -21.8794 -10.2882 -11.8688 -23.9623 -18.6807 -13.3693 0.124191 -6.45047 -87.7437 -48.7924 81.8917 -29.243 24.9629 -13.2784 16.5396 30.5191 -16.4413 -27.9572 3.45515 -19.8391 6.26024 -3.70329 -4.68979 -8.61884 -3.07732 7.49403 
54.7715 101.924 -348.947 -172.109 -85.4963 -173.516 179.629 -8.3862 82.6565 -5.59616 4.74306 6.09354 70.7309 6.06929 0.0485121 16.8426 -9.51103 7.83857 163.62 -5.37544 79.4476 -6.22767 -17.5324 4.51698 66.5825 -4.45541 1.1247 29.2174 -0.661638 1.93899 0.229764 7.47418 -90.1978 11.9259 0.36369 -0.433869 0.254893 0.344244 -0.449467 -22.2803 0.477264 -0.304508 -2.26767 0.477272 -0.304511 91.7716 -28.3203 -103.793 41.8903 -22.6508 -10.0177 -11.839 -22.4761 -19.6133 -13.3816 0.0460712 -5.7451 -87.7045 -49.6364 82.1037 -28.3418 23.6887 -13.2302 16.1463 26.9547 -15.8655 -23.6789 2.15434 -16.2468 6.74043 -3.64757 -4.17666 -9.16004 -3.13229 7.38503 
54.9224 101.898 -349.343 -164.671 -86.0853 -165.147 -179.142 -6.13226 84.1159 -8.46285 5.16213 5.06555 72.3023 6.84382 0.544209 15.9416 -9.48649 6.94291 164.803 -4.84521 80.8425 -6.1658 -16.2445 4.08272 66.1214 -4.2626 1.67817 30.047 -1.16176 2.56922 0.315449 7.44993 -90.3127 11.9754 0.479775 -0.675598 0.304354 0.449592 -0.696065 -22.2307 0.660638 -0.500174 -2.21803 0.660649 -0.500173 90.4664 -28.0463 -106.58 41.4672 -21.5344 -7.97185 -12.7013 -19.7868 -21.9491 -12.9519 -0.0147865 -5.22353 -88.0443 -50.0024 81.6578 -27.9972 23.1836 -13.3762 13.61 20.3473 -13.864 -20.9303 1.62838 -14.9234 6.07134 -3.23155 -3.45298 -7.85544 -2.77351 6.59393 
55.4014 101.819 -349.628 -165.513 -86.7522 -165.425 -178.128 -3.84223 85.1187 -11.5961 5.68077 3.93174 74.1109 7.81158 0.119527 16.0942 -9.63092 7.32892 166.17 -4.20906 82.0375 -6.76632 -14.7747 3.14826 66.1566 -4.47914 1.5194 30.6815 -1.18434 1.46651 0.311776 7.43643 -90.3744 12.002 0.443257 -0.795098 0.330914 0.407841 -0.813833 -22.2035 0.661723 -0.625127 -2.19089 0.661721 -0.625128 90.284 -27.7523 -107.068 41.4165 -20.8365 -6.9053 -14.1139 -19.4051 -24.5091 -11.488 -0.216846 -3.10006 -87.6685 -50.2693 82.2686 -27.2222 28.1958 -13.0742 8.7844 5.10988 -12.839 -23.8789 2.67142 -18.8378 4.58703 -2.18164 -2.40187 -5.81511 -1.81501 4.55594 
56.081 101.582 -349.627 -164.133 -86.8844 -163.101 -176.197 -1.73705 86.8455 -15.6961 7.44752 2.00795 76.3722 9.34371 0.322722 15.0525 -10.2594 7.42331 168.011 -4.11359 83.73 -7.89623 -13.1356 1.68579 66.6932 -5.18341 1.35192 30.8342 -1.2045 1.26504 0.412447 7.49893 -90.5538 11.8776 0.559507 -1.16436 0.206226 0.507728 -1.18785 -22.3269 0.883555 -0.942402 -2.31428 0.883556 -0.942402 89.9618 -27.4968 -107.832 40.7601 -19.0293 -5.85869 -15.0861 -19.2947 -25.6361 -11.0209 -0.156722 -3.66386 -87.7801 -50.8628 82.2063 -26.5873 25.3212 -13.3528 8.12383 0.0124635 -11.4859 -14.7192 0.794205 -12.3298 6.14697 -3.33446 -2.17771 -8.18405 -3.09479 5.52958 
56.8648 100.876 -349.372 -157.435 -87.2584 -155.893 -174.713 0.977538 87.6119 -20.7567 8.38632 0.364481 79.5423 10.9999 0.236234 14.441 -10.3197 6.96763 171.036 -0.030967 85.2407 -15.2088 -10.0787 -0.478934 68.2507 -6.86969 0.607169 34.3823 -2.53537 0.283865 0.42988 7.54307 -90.6467 11.7892 0.551036 -1.34775 0.117657 0.491197 -1.3707 -22.4143 0.930586 -1.11988 -2.40163 0.930596 -1.11987 89.5947 -28.1256 -108.319 38.4232 -19.0366 -6.69206 -12.3088 -15.3416 -22.6474 -13.0078 -0.081041 -4.61809 -88.108 -50.7839 81.7043 -26.2346 23.6917 -13.3221 7.14409 -5.04913 -9.8619 -5.4519 -0.022355 -7.90085 5.70763 -2.61544 -2.1806 -6.56844 -2.26798 4.00242 
